HIERARCHY
ROOT hip
{
	OFFSET 0.00000 0.00000 0.00000
	CHANNELS 6 Xposition Yposition Zposition Zrotation Yrotation Xrotation 
	JOINT lhipjoint
	{
		OFFSET 0 0 0
		CHANNELS 3 Zrotation Yrotation Xrotation
		JOINT lfemur
		{
			OFFSET 1.57314 -1.85774 0.63783
			CHANNELS 3 Zrotation Yrotation Xrotation
			JOINT ltibia
			{
				OFFSET 2.57982 -7.08799 0.00000
				CHANNELS 3 Zrotation Yrotation Xrotation
				JOINT lfoot
				{
					OFFSET 2.63993 -7.25315 0.00000
					CHANNELS 3 Zrotation Yrotation Xrotation
					JOINT ltoes
					{
						OFFSET 0.16864 -0.46332 2.12791
						CHANNELS 3 Zrotation Yrotation Xrotation
						End Site
						{
							OFFSET 0.00000 -0.00000 1.09718
						}
					}
				}
			}
		}
	}
	JOINT rhipjoint
	{
		OFFSET 0 0 0
		CHANNELS 3 Zrotation Yrotation Xrotation
		JOINT rfemur
		{
			OFFSET -1.56006 -1.85774 0.63784
			CHANNELS 3 Zrotation Yrotation Xrotation
			JOINT rtibia
			{
				OFFSET -2.54246 -6.98536 0.00000
				CHANNELS 3 Zrotation Yrotation Xrotation
				JOINT rfoot
				{
					OFFSET -2.65791 -7.30256 0.00000
					CHANNELS 3 Zrotation Yrotation Xrotation
					JOINT rtoes
					{
						OFFSET -0.18435 -0.50650 2.16316
						CHANNELS 3 Zrotation Yrotation Xrotation
						End Site
						{
							OFFSET -0.00000 -0.00000 1.11780
						}
					}
				}
			}
		}
	}
	JOINT lowerback
	{
		OFFSET 0 0 0
		CHANNELS 3 Zrotation Yrotation Xrotation
		JOINT upperback
		{
			OFFSET -0.00136 1.92812 -0.29638
			CHANNELS 3 Zrotation Yrotation Xrotation
			JOINT thorax
			{
				OFFSET -0.00528 1.96223 -0.02928
				CHANNELS 3 Zrotation Yrotation Xrotation
				JOINT lowerneck
				{
					OFFSET 0 0 0
					CHANNELS 3 Zrotation Yrotation Xrotation
					JOINT upperneck
					{
						OFFSET -0.01015 1.75586 0.07797
						CHANNELS 3 Zrotation Yrotation Xrotation
						JOINT head
						{
							OFFSET 0.05540 1.72452 0.04558
							CHANNELS 3 Zrotation Yrotation Xrotation
							End Site
							{
								OFFSET 0.02170 1.79958 0.00864
							}
						}
					}
				}
				JOINT lclavicle
				{
					OFFSET 0 0 0
					CHANNELS 3 Zrotation Yrotation Xrotation
					JOINT lhumerus
					{
						OFFSET 3.16292 1.29277 -0.65728
						CHANNELS 3 Zrotation Yrotation Xrotation
						JOINT lradius
						{
							OFFSET 5.52302 -0.00000 -0.00000
							CHANNELS 3 Zrotation Yrotation Xrotation
							JOINT lwrist
							{
								OFFSET 3.58675 -0.00000 -0.00000
								CHANNELS 3 Zrotation Yrotation Xrotation
								JOINT lhand
								{
									OFFSET 0 0 0
									CHANNELS 3 Zrotation Yrotation Xrotation
									JOINT lfingers
									{
										OFFSET 0.53641 -0.00000 -0.00000
										CHANNELS 3 Zrotation Yrotation Xrotation
										End Site
										{
											OFFSET 0.43247 -0.00000 -0.00000
										}
									}
								}
								JOINT lthumb
								{
									OFFSET 0 0 0
									CHANNELS 3 Zrotation Yrotation Xrotation
									End Site
									{
										OFFSET 0.43907 -0.00000 0.43907
									}
								}
							}
						}
					}
				}
				JOINT rclavicle
				{
					OFFSET 0 0 0
					CHANNELS 3 Zrotation Yrotation Xrotation
					JOINT rhumerus
					{
						OFFSET -3.08296 1.43376 -0.52927
						CHANNELS 3 Zrotation Yrotation Xrotation
						JOINT rradius
						{
							OFFSET -5.84780 -0.00000 0.00000
							CHANNELS 3 Zrotation Yrotation Xrotation
							JOINT rwrist
							{
								OFFSET -3.62717 -0.00000 -0.00000
								CHANNELS 3 Zrotation Yrotation Xrotation
								JOINT rhand
								{
									OFFSET 0 0 0
									CHANNELS 3 Zrotation Yrotation Xrotation
									JOINT rfingers
									{
										OFFSET -0.65052 -0.00000 -0.00000
										CHANNELS 3 Zrotation Yrotation Xrotation
										End Site
										{
											OFFSET -0.52446 -0.00000 -0.00000
										}
									}
								}
								JOINT rthumb
								{
									OFFSET 0 0 0
									CHANNELS 3 Zrotation Yrotation Xrotation
									End Site
									{
										OFFSET -0.53247 -0.00000 0.53247
									}
								}
							}
						}
					}
				}
			}
		}
	}
}
MOTION
Frames: 14
Frame Time: 0.033333
8.7375 17.7400 -1.6561 -180.4079 67.7042 -183.0182 -0.0000 0.0000 0.0000 -16.2003 -7.9777 -15.1965 0.4705 4.4075 12.2326 -1.0057 18.3087 -0.7777 0.1689 2.6468 7.2946 0.0000 -0.0000 -0.0000 25.1535 16.2840 5.1755 -5.7511 -14.1818 44.0092 0.6424 14.6998 0.7587 -0.0563 -1.5227 4.1736 2.9232 -8.8687 5.6396 4.8366 -11.2776 1.6897 4.1570 -5.5800 -0.9143 4.3404 -16.7828 3.0969 -6.0903 -20.6700 31.8705 -3.6836 -9.2009 8.4265 -0.0000 0.0000 -0.0000 -76.0467 -1.2268 28.0690 14.9049 -24.0504 -3.2081 -0.0000 -0.0000 -11.7260 35.0594 16.0329 10.9699 -7.1293 -0.0000 -0.0000 7.2583 49.1876 0.7532 0.0000 0.0000 0.0000 84.2609 -16.0365 -7.8810 -7.3905 12.5662 -0.8182 0.0000 0.0000 12.6353 -21.2433 12.0779 -4.6496 7.1293 0.0000 0.0000 4.1491 -17.0805 2.7556
8.6241 17.7217 -1.5712 -180.2639 68.1373 -182.9051 -0.0000 0.0000 0.0000 -15.8261 -7.7814 -15.6041 0.4677 4.3926 12.1889 -1.0028 18.3850 -0.4647 0.1554 2.5400 6.9976 0.0000 -0.0000 -0.0000 25.5750 16.2279 5.8509 -5.4523 -13.8753 42.7689 0.5870 14.9962 -1.6110 -0.0677 -1.6733 4.5909 3.1378 -8.7777 5.8331 4.7983 -11.1407 1.7829 4.0097 -5.5168 -0.9861 4.5174 -16.7362 2.8596 -6.1483 -20.6311 31.9032 -3.7447 -9.1694 8.4521 -0.0000 0.0000 0.0000 -76.0702 -1.2542 28.0691 14.7564 -23.8343 -3.1430 -0.0000 -0.0000 -11.4176 34.7092 15.6944 10.6134 -7.1263 0.0000 -0.0000 6.9142 48.7276 0.6385 0.0000 0.0000 0.0000 86.9592 -13.9215 -8.5092 -7.0966 12.0924 -0.7595 0.0000 0.0000 13.0051 -25.7936 10.6913 -5.1207 7.1263 0.0000 0.0000 0.8994 -18.1493 0.5729
8.5025 17.7118 -1.4877 -179.6530 68.5836 -182.5260 -0.0000 0.0000 0.0000 -15.2065 -7.4997 -15.8298 0.4574 4.3398 12.0350 -1.0173 18.5190 -0.4544 0.1721 2.6739 7.3699 0.0000 -0.0000 -0.0000 26.1378 16.0320 6.5002 -5.1555 -13.5566 41.4965 0.4329 14.4553 -3.9644 -0.1134 -2.1710 5.9737 3.3952 -8.5976 6.3706 4.8913 -10.8832 1.8794 3.9859 -5.3766 -1.2394 4.4619 -16.7934 2.8135 -6.0976 -20.7339 31.7492 -3.7155 -9.2238 8.4162 -0.0000 0.0000 -0.0000 -76.1892 -1.4211 28.0558 14.5162 -23.4741 -3.0340 -0.0000 -0.0000 -10.7655 34.5978 15.6456 10.5384 -7.1276 0.0000 -0.0000 6.8040 48.6505 0.6153 0.0000 0.0000 0.0000 85.5874 -14.5163 -8.4158 -7.4941 12.7381 -0.8417 0.0000 0.0000 13.1288 -20.5123 12.5664 -4.6533 7.1276 0.0000 0.0000 4.6743 -16.6241 3.1521
8.3749 17.6986 -1.3914 -177.5181 68.6368 -180.6579 -0.0000 0.0000 0.0000 -13.8962 -7.4261 -15.5885 0.3693 3.8978 10.7845 -1.0744 19.1715 -0.0141 0.1554 2.5447 7.0113 0.0000 -0.0000 -0.0000 27.3445 15.5948 6.7906 -4.8841 -13.2518 40.3015 0.1697 12.6477 -6.4227 -0.0587 -1.5691 4.3197 4.0181 -8.6919 6.9174 5.3168 -10.9248 1.9354 4.1365 -5.3920 -1.5304 3.9235 -16.7018 2.8762 -5.9163 -20.6337 31.5053 -3.5695 -9.2235 8.4094 -0.0000 0.0000 -0.0000 -76.6633 -1.5455 27.3892 14.2479 -23.0683 -2.9135 -0.0000 -0.0000 -9.8476 34.7201 15.6636 10.5964 -7.1247 0.0000 -0.0000 6.9264 48.6926 0.6336 0.0000 0.0000 0.0000 84.8263 -14.2701 -8.1860 -7.6101 12.9205 -0.8637 0.0000 0.0000 14.1088 -19.1610 13.1173 -4.5079 7.1247 0.0000 0.0000 5.6265 -16.1650 3.8540
8.2466 17.6863 -1.2803 -175.9471 68.5765 -179.2279 -0.0000 0.0000 0.0000 -12.7345 -7.3729 -15.1891 0.2603 3.2717 9.0289 -1.0807 19.7491 1.2945 0.0665 1.6725 4.5993 0.0000 -0.0000 -0.0000 28.0495 14.5709 6.4467 -4.6429 -12.9695 39.2271 -0.0255 11.2811 -8.2900 -0.0009 -0.2647 0.7340 4.6241 -8.7516 7.2523 5.3815 -10.9352 2.0569 3.9147 -5.3887 -1.6949 4.0017 -16.6957 2.7893 -5.7989 -20.6725 31.4258 -3.5467 -9.2272 8.4024 -0.0000 0.0000 -0.0000 -76.4594 -1.7154 27.5035 14.0632 -22.7939 -2.8353 -0.0000 -0.0000 -9.8246 34.9063 16.0634 10.9270 -7.1241 0.0000 -0.0000 7.1028 49.1948 0.7381 0.0000 0.0000 0.0000 85.1917 -13.7494 -8.2969 -7.7084 13.0815 -0.8861 0.0000 0.0000 15.4069 -20.1364 12.9309 -4.6894 7.1241 0.0000 0.0000 4.9487 -16.2684 3.3734
8.1675 17.6907 -1.2848 -187.2630 70.0302 -190.9960 -0.0000 0.0000 0.0000 -17.0120 -4.9987 -12.8210 0.1457 2.4633 6.7891 -1.0193 19.6247 2.1718 0.0097 0.6376 1.7512 0.0000 -0.0000 -0.0000 23.3079 14.9013 9.4162 -4.4282 -12.7096 38.2997 0.2140 14.3549 -7.3620 -1.7283 -8.2764 23.5525 1.9199 -8.0377 7.4804 3.7286 -10.2643 2.6450 3.6297 -5.0655 -1.0372 4.0748 -16.7847 2.7550 -5.5756 -20.8451 31.4404 -3.5068 -9.2895 8.4239 0.0000 0.0000 -0.0000 -76.1205 -1.9532 28.2858 13.8499 -22.5286 -2.7751 -0.0000 -0.0000 -10.2751 35.2117 16.3329 11.2255 -7.1264 0.0000 -0.0000 7.4056 49.5675 0.8381 0.0000 0.0000 0.0000 85.8952 -12.9236 -8.7377 -7.7504 13.1450 -0.8934 0.0000 0.0000 16.4854 -21.2138 12.9586 -4.9725 7.1264 0.0000 0.0000 4.2046 -16.1406 2.8752
8.0459 17.7050 -1.1980 -186.7210 70.5069 -190.4470 -0.0000 0.0000 0.0000 -16.0520 -4.2739 -11.9928 0.0539 1.5060 4.1439 -1.0540 20.3497 3.0029 0.0091 0.6149 1.6887 0.0000 -0.0000 -0.0000 23.5286 13.6397 8.2071 -4.2442 -12.4788 37.4565 -0.1597 12.8711 -10.9693 -0.0576 -1.5466 4.2498 2.1757 -7.9562 7.6613 3.8533 -10.1149 2.7109 3.6344 -4.9838 -1.0950 3.8263 -16.7513 3.0114 -5.3954 -20.8036 31.2315 -3.3851 -9.2899 8.3604 -0.0000 0.0000 0.0000 -76.3942 -2.1877 27.8566 13.4728 -21.9860 -2.6329 -0.0000 0.0000 -9.6830 35.0062 16.0457 10.9563 -7.1262 0.0000 0.0000 7.2042 49.1925 0.7484 0.0000 0.0000 0.0000 85.7027 -12.5001 -8.6892 -8.0106 13.5718 -0.9557 0.0000 0.0000 17.0932 -20.6416 13.2047 -4.9159 7.1262 0.0000 0.0000 4.6088 -15.9367 3.1736
7.9218 17.7070 -1.1058 -184.3350 71.1745 -188.0730 -0.0000 0.0000 0.0000 -14.2452 -3.1825 -10.5153 -0.0004 -0.0003 0.0001 -1.2096 21.9661 3.6323 0.0169 0.8406 2.3088 0.0000 -0.0000 -0.0000 24.9078 13.6960 7.6533 -4.1337 -12.3366 36.9419 -0.4151 10.2096 -12.6238 -0.0188 0.8796 -2.4221 3.0812 -7.8918 7.7278 4.1090 -9.9289 2.7980 3.4095 -4.8853 -1.1568 3.6973 -16.7516 3.3495 -5.2641 -20.7951 30.9838 -3.2816 -9.2996 8.2496 -0.0000 0.0000 0.0000 -76.7237 -2.5303 26.9041 12.9693 -21.2507 -2.4465 -0.0000 0.0000 -8.7875 34.6458 15.4133 10.4073 -7.1223 0.0000 0.0000 6.8586 48.3863 0.5754 0.0000 0.0000 0.0000 85.0934 -12.0218 -8.4801 -8.2117 13.8911 -1.0004 0.0000 0.0000 17.3810 -18.7250 13.9230 -4.6567 7.1223 0.0000 0.0000 5.9516 -15.3705 4.1755
7.7994 17.6996 -1.0059 -179.2680 72.3755 -182.5180 -0.0000 0.0000 0.0000 -11.6885 -2.4715 -11.8692 -0.0003 -0.0000 0.0001 -1.2492 21.9083 2.9469 0.0047 0.4535 1.2430 0.0000 -0.0000 -0.0000 27.2333 15.5780 7.3511 -4.0266 -12.1961 36.4380 -0.5312 8.9064 -13.5094 -0.0097 0.6259 -1.7264 4.7290 -7.4926 7.2533 4.5477 -9.2618 2.7611 2.8775 -4.5501 -1.1438 4.1513 -16.9333 3.4866 -5.3927 -21.0110 30.8524 -3.3541 -9.3737 8.1073 -0.0000 0.0000 0.0000 -76.8394 -2.9469 26.6808 12.5010 -20.5598 -2.2791 -0.0000 0.0000 -7.9711 34.6376 15.4605 10.4346 -7.1216 -0.0000 0.0000 6.8492 48.4402 0.5838 0.0000 0.0000 0.0000 85.0047 -11.6380 -8.8229 -8.5004 14.3603 -1.0730 0.0000 0.0000 17.4484 -18.3529 14.3162 -4.6816 7.1216 0.0000 0.0000 6.2181 -14.9997 4.4121
7.6665 17.6675 -0.7601 -178.9421 70.3125 -181.9289 -0.0000 0.0000 -0.0000 -10.5740 -4.8465 -12.8369 0.0015 0.0015 -0.0007 -1.2685 22.1125 3.0479 0.0007 -0.2111 -0.5813 0.0000 -0.0000 -0.0000 28.0223 15.2188 6.2473 -3.9567 -12.1014 36.0705 -0.6007 8.1035 -14.0906 -0.0033 -0.4039 1.1159 2.6903 -7.9388 8.0248 5.1762 -9.9986 2.4174 4.7196 -4.9190 -1.4752 4.0711 -16.9454 3.7000 -5.3267 -21.0191 30.7321 -3.2914 -9.3783 8.0522 0.0000 0.0000 0.0000 -76.9850 -3.1228 26.5263 12.1199 -19.9604 -2.1309 -0.0000 0.0000 -7.2323 34.8908 15.9304 10.8352 -7.1218 0.0000 0.0000 7.0908 49.0360 0.7090 0.0000 0.0000 0.0000 84.8182 -11.2844 -8.8842 -8.7474 14.7768 -1.1454 0.0000 0.0000 17.5802 -21.2149 13.4021 -5.1364 7.1218 0.0000 0.0000 4.2255 -15.6677 2.9274
7.5562 17.6674 -0.6724 -179.4341 71.1455 -182.8579 -0.0000 0.0000 -0.0000 -10.0754 -4.0086 -12.6512 0.0023 0.0023 -0.0011 -1.2531 21.4337 1.9095 0.0035 -0.4080 -1.1221 0.0000 -0.0000 -0.0000 27.8294 14.9517 6.3721 -3.8672 -11.9796 35.6283 -0.6001 8.8991 -14.2427 -0.0242 -1.0196 2.8129 2.5810 -7.8319 8.5099 5.0464 -9.8685 2.6013 4.6632 -4.8527 -1.5717 3.6831 -16.7409 3.8645 -5.3102 -20.7082 30.9353 -3.2294 -9.2530 8.1538 0.0000 0.0000 0.0000 -77.0106 -3.0334 26.2020 11.8074 -19.4776 -2.0185 -0.0000 0.0000 -6.9887 34.7820 15.9962 10.8344 -7.1202 0.0000 0.0000 6.9791 49.0936 0.7078 0.0000 0.0000 0.0000 84.8069 -10.7855 -8.4964 -8.8890 14.9928 -1.1761 0.0000 0.0000 18.5702 -18.2765 14.8497 -4.8334 7.1202 0.0000 0.0000 6.2836 -14.4412 4.5371
7.4612 17.6633 -0.6079 -177.3131 72.3074 -180.6809 -0.0000 -0.0000 -0.0000 -8.6618 -2.9384 -13.0125 0.0017 0.0018 -0.0008 -1.2013 20.5914 0.9280 0.0387 -1.2769 -3.5126 0.0000 0.0000 -0.0000 28.4091 15.3197 5.9389 -3.8304 -11.9299 35.4639 -0.6239 9.4369 -14.6030 -0.0279 -1.0876 2.9955 3.7279 -7.6649 8.0533 4.9983 -9.5502 2.6873 3.9359 -4.6929 -1.4379 3.7698 -16.5881 3.9124 -5.5797 -20.4142 31.3686 -3.3369 -9.1066 8.2631 0.0000 0.0000 0.0000 -76.9359 -2.8695 26.1327 11.4685 -18.9769 -1.9128 -0.0000 0.0000 -6.6507 34.3219 15.9069 10.5976 -7.1209 0.0000 0.0000 6.5183 48.9074 0.6306 0.0000 0.0000 0.0000 84.7830 -10.3468 -8.1954 -8.9472 15.0782 -1.1873 0.0000 0.0000 20.0089 -18.7403 15.0498 -5.0295 7.1209 0.0000 0.0000 5.9756 -14.1896 4.3443
7.3837 17.6691 -0.5443 -181.0170 73.4628 -184.0020 0.0000 -0.0000 -0.0000 -9.3262 -1.8182 -13.1915 -0.0004 -0.0002 0.0001 -1.0422 19.3057 1.0373 0.4106 -4.1132 -11.3971 0.0000 0.0000 0.0000 27.2684 16.7256 6.2116 -3.8009 -11.8911 35.3553 -0.6217 10.5532 -14.8613 -0.1592 -2.5709 7.0813 3.0080 -7.2833 7.2563 4.5273 -9.1489 2.7902 3.7421 -4.5043 -0.8529 4.1897 -16.5932 3.9240 -6.0150 -20.3120 31.6244 -3.5340 -9.0500 8.2493 0.0000 0.0000 0.0000 -77.0384 -3.0300 25.7539 10.9722 -18.2537 -1.7710 0.0000 0.0000 -5.7756 34.0229 15.7258 10.3690 -7.1232 -0.0000 0.0000 6.2253 48.6443 0.5616 0.0000 0.0000 0.0000 84.2655 -9.9033 -8.0457 -8.9659 15.1085 -1.1927 0.0000 0.0000 20.9583 -19.1675 15.3621 -5.2563 7.1232 0.0000 0.0000 5.6971 -13.8258 4.1848
7.3103 17.6867 -0.4927 -197.5749 73.5179 -200.7591 -0.0000 0.0000 -0.0000 -14.0797 -0.6349 -11.9501 -0.0016 -0.0017 0.0008 -0.8998 17.6329 0.0672 0.6293 -5.0749 -14.1203 0.0000 -0.0000 -0.0000 22.4272 18.2179 8.2150 -3.8070 -11.9003 35.3991 -0.4153 13.7833 -14.0730 -1.7660 -8.3610 23.8102 -1.2178 -6.7296 7.3824 3.0210 -8.8202 3.0626 4.4376 -4.3578 -0.2452 4.4287 -16.6778 3.8123 -6.2468 -20.3735 32.0278 -3.6732 -9.0575 8.3508 0.0000 0.0000 0.0000 -76.9978 -3.1411 26.0585 10.6227 -17.7322 -1.6712 0.0000 0.0000 -5.7152 33.9436 15.9678 10.4908 -7.1234 0.0000 0.0000 6.1350 48.9128 0.5941 0.0000 0.0000 0.0000 83.9473 -9.5314 -8.1069 -9.1342 15.3771 -1.2372 0.0000 0.0000 21.1727 -18.3093 15.9178 -5.1813 7.1234 0.0000 0.0000 6.2937 -13.3363 4.6963
